<svg width="8" height="8" viewBox="0 0 8 8" fill="none" xmlns="http://www.w3.org/2000/svg">
<path d="M4 0C1.79107 0 0 1.79107 0 4C0 6.20893 1.79107 8 4 8C6.20893 8 8 6.20893 8 4C8 1.79107 6.20893 0 4 0ZM4 7.32143C2.16607 7.32143 0.678571 5.83393 0.678571 4C0.678571 2.16607 2.16607 0.678571 4 0.678571C5.83393 0.678571 7.32143 2.16607 7.32143 4C7.32143 5.83393 5.83393 7.32143 4 7.32143Z" fill="black"/>
<path d="M4.99641 2.25625C4.72855 2.02142 4.37498 1.89285 3.99998 1.89285C3.62498 1.89285 3.27141 2.02232 3.00355 2.25625C2.72498 2.5 2.57141 2.82767 2.57141 3.17857V3.24642C2.57141 3.28571 2.60355 3.31785 2.64284 3.31785H3.07141C3.1107 3.31785 3.14284 3.28571 3.14284 3.24642V3.17857C3.14284 2.78482 3.52766 2.46428 3.99998 2.46428C4.4723 2.46428 4.85713 2.78482 4.85713 3.17857C4.85713 3.45625 4.6607 3.71071 4.35623 3.82767C4.16695 3.9 4.00623 4.02678 3.89105 4.19285C3.77409 4.3625 3.71338 4.56607 3.71338 4.77232V4.96428C3.71338 5.00357 3.74552 5.03571 3.7848 5.03571H4.21338C4.25266 5.03571 4.2848 5.00357 4.2848 4.96428V4.7616C4.28527 4.67493 4.31184 4.5904 4.36105 4.51905C4.41026 4.44769 4.47984 4.39283 4.5607 4.3616C5.08748 4.15892 5.42766 3.69464 5.42766 3.17857C5.42855 2.82767 5.27498 2.5 4.99641 2.25625ZM3.64284 5.96428C3.64284 6.059 3.68047 6.14984 3.74744 6.21682C3.81442 6.2838 3.90526 6.32142 3.99998 6.32142C4.0947 6.32142 4.18554 6.2838 4.25252 6.21682C4.3195 6.14984 4.35713 6.059 4.35713 5.96428C4.35713 5.86956 4.3195 5.77872 4.25252 5.71174C4.18554 5.64477 4.0947 5.60714 3.99998 5.60714C3.90526 5.60714 3.81442 5.64477 3.74744 5.71174C3.68047 5.77872 3.64284 5.86956 3.64284 5.96428Z" fill="black"/>
</svg>
