<svg id="Capa_1" enable-background="new 0 0 510.009 510.009" height="512" viewBox="0 0 510.009 510.009" width="512" xmlns="http://www.w3.org/2000/svg" xmlns:xlink="http://www.w3.org/1999/xlink"><linearGradient id="lg1"><stop offset="0" stop-color="#a2e62e"/><stop offset=".7542" stop-color="#09a76d"/><stop offset="1" stop-color="#017b4e"/></linearGradient><linearGradient id="SVGID_1_" gradientUnits="userSpaceOnUse" x1="-5.917" x2="119.607" xlink:href="#lg1" y1="59.338" y2="59.338"/><linearGradient id="SVGID_2_" gradientUnits="userSpaceOnUse" x1="-72.697" x2="104.236" y1="59.338" y2="59.338"><stop offset="0" stop-color="#a2e62e"/><stop offset="1" stop-color="#02905d"/></linearGradient><linearGradient id="SVGID_3_" gradientUnits="userSpaceOnUse" x1=".005" x2="356.659" y1="253.087" y2="253.087"><stop offset="0" stop-color="#a79ba7"/><stop offset=".7487" stop-color="#7a6d79"/><stop offset="1" stop-color="#685e68"/></linearGradient><linearGradient id="lg2"><stop offset="0" stop-color="#f8f6f7"/><stop offset="1" stop-color="#d1ceeb"/></linearGradient><linearGradient id="SVGID_4_" gradientUnits="userSpaceOnUse" x1="403.306" x2="509.789" xlink:href="#lg2" y1="104.238" y2="104.238"/><linearGradient id="SVGID_5_" gradientUnits="userSpaceOnUse" x1="403.306" x2="509.789" xlink:href="#lg2" y1="28.429" y2="28.429"/><linearGradient id="lg3"><stop offset="0" stop-color="#fff9df"/><stop offset=".593" stop-color="#ffe177"/><stop offset="1" stop-color="#feb137"/></linearGradient><linearGradient id="SVGID_6_" gradientUnits="userSpaceOnUse" x1="341.357" x2="435.209" xlink:href="#lg3" y1="66.333" y2="66.333"/><linearGradient id="SVGID_7_" gradientUnits="userSpaceOnUse" x1="382.771" x2="435.625" y1="66.332" y2="66.332"><stop offset="0" stop-color="#ffe177"/><stop offset="1" stop-color="#feb137"/></linearGradient><linearGradient id="SVGID_8_" gradientUnits="userSpaceOnUse" x1="409.714" x2="464.11" xlink:href="#lg3" y1="66.333" y2="66.333"/><linearGradient id="SVGID_9_" gradientUnits="userSpaceOnUse" x1="48.55" x2="455.169" y1="305.108" y2="305.108"><stop offset="0" stop-color="#01d0fb"/><stop offset=".6075" stop-color="#26a6fe"/><stop offset="1" stop-color="#0182fc"/></linearGradient><linearGradient id="SVGID_10_" gradientUnits="userSpaceOnUse" x1="233.616" x2="456.902" y1="305.107" y2="305.107"><stop offset="0" stop-color="#01bffa"/><stop offset=".2539" stop-color="#1f9efc"/><stop offset=".5724" stop-color="#407afd"/><stop offset=".8326" stop-color="#5464ff"/><stop offset="1" stop-color="#5b5cff"/></linearGradient><linearGradient id="SVGID_11_" gradientUnits="userSpaceOnUse" x1="39.211" x2="247.613" xlink:href="#lg1" y1="459.58" y2="459.58"/><linearGradient id="SVGID_12_" gradientUnits="userSpaceOnUse" x1="182.021" x2="446.244" xlink:href="#lg1" y1="344.884" y2="344.884"/><linearGradient id="SVGID_13_" gradientUnits="userSpaceOnUse" x1="302.527" x2="485.436" y1="344.888" y2="344.888"><stop offset="0" stop-color="#09a76d"/><stop offset="1" stop-color="#026841"/></linearGradient><linearGradient id="SVGID_14_" gradientUnits="userSpaceOnUse" x1="19.692" x2="344.431" xlink:href="#lg1" y1="242.567" y2="242.567"/><linearGradient id="SVGID_15_" gradientUnits="userSpaceOnUse" x1="19.692" x2="344.431" xlink:href="#lg1" y1="148.219" y2="148.219"/><g><g><path d="m90.403 28.088c-18.54-18.578-43.828-27.706-71.827-28.086-10.33-.14-18.709 8.257-18.57 18.608.379 28.058 9.488 53.399 28.028 71.977s43.828 27.706 71.827 28.086c10.329.14 18.709-8.257 18.569-18.608-.379-28.057-9.488-53.398-28.027-71.977z" fill="url(#SVGID_1_)"/><path d="m90.403 28.088c-18.54-18.578-43.828-27.706-71.827-28.086-2.648-.036-5.164.497-7.445 1.472 20.966 3.262 39.732 12.003 54.313 26.615 18.54 18.578 27.649 43.92 28.028 71.977.104 7.698-4.507 14.307-11.124 17.136 5.692.885 11.536 1.391 17.514 1.472 10.329.14 18.709-8.257 18.569-18.608-.38-28.058-9.489-53.399-28.028-71.978z" fill="url(#SVGID_2_)"/></g><path d="m145.816 436.823c-1.828-7.178-8.615-11.988-15.966-11.214-3.008.317-6.027.476-9.042.476-39.278 0-73.581-26.318-83.419-64.001-.308-1.179-.607-2.363-.897-3.553-14.252-58.365-5.142-118.661 25.651-169.781 30.792-51.119 79.793-87.297 137.974-101.871 17.94-4.494 36.314-6.772 54.612-6.772 1.385 0 72.08-.079 101.929.039v-29.994c-26.919-.107-100.35-.044-101.929-.044-20.421 0-41.168 2.481-61.872 7.667-136.272 34.133-218.831 171.162-185.445 307.887.328 1.344.666 2.682 1.014 4.016 13.604 52.11 60.868 86.408 112.381 86.408 4.038 0 8.1-.21 12.174-.639 9.037-.952 15.082-9.801 12.835-18.624z" fill="url(#SVGID_3_)"/><g><g><g><g><path d="m499.858 114.406h-78.338c-5.604 0-10.147-4.552-10.147-10.168s4.543-10.168 10.147-10.168h78.338c5.603 0 10.147 4.552 10.147 10.168s-4.544 10.168-10.147 10.168z" fill="url(#SVGID_4_)"/><path d="m499.858 38.597h-78.338c-5.604 0-10.147-4.552-10.147-10.168s4.543-10.168 10.147-10.168h78.338c5.603 0 10.147 4.552 10.147 10.168s-4.544 10.168-10.147 10.168z" fill="url(#SVGID_5_)"/></g></g></g><g><path d="m343.045 66.392v-.118c0-31.118 25.227-56.345 56.345-56.345h36.075v112.808h-36.075c-31.119 0-56.345-25.226-56.345-56.345z" fill="url(#SVGID_6_)"/><path d="m405.903 9.931h29.564v112.802h-29.564z" fill="url(#SVGID_7_)"/><path d="m426.507 119.012v-105.358c0-7.541 6.113-13.654 13.654-13.654 7.541 0 13.654 6.113 13.654 13.654v105.358c0 7.541-6.113 13.654-13.654 13.654-7.541.001-13.654-6.113-13.654-13.654z" fill="url(#SVGID_8_)"/></g></g><g><g><ellipse cx="254.539" cy="305.108" fill="url(#SVGID_9_)" rx="204.425" ry="204.853"/><path d="m452.757 255.011c-25.074-99.624-119.025-163.613-218.064-153.809 83.366 8.253 156.461 67.725 178.127 153.809 27.61 109.702-38.753 221.062-148.226 248.73-10.057 2.542-20.128 4.282-30.147 5.274 22.872 2.264 46.515.683 70.084-5.274 109.473-27.668 175.836-139.029 148.226-248.73z" fill="url(#SVGID_10_)"/><path d="m131.369 411.223-42.78 13.598c34.173 47.541 87.498 78.416 145.858 84.193 3.783-5.594 5.314-12.474 3.97-19.092-5.322-26.204-28.446-45.922-56.166-45.922-10.31 0-19.334-6.942-21.999-16.923-3.355-12.57-16.505-19.789-28.883-15.854z" fill="url(#SVGID_11_)"/><path d="m303.147 425.972c10.499 41.714 62.104 56.706 93.036 26.875 51.13-49.31 75.17-123.946 56.573-197.836-.157-.623-.316-1.244-.478-1.864-5.919-22.63-28.896-36.279-51.532-30.558-10.931 2.763-20.319 9.763-26.099 19.462l-27.52 46.18c-7.511 12.603-3.404 28.922 9.173 36.448 12.577 7.526 16.684 23.845 9.173 36.448-11.104 18.634-29.14 32.083-50.141 37.391-9.916 2.506-15.927 12.593-13.426 22.529z" fill="url(#SVGID_12_)"/><path d="m452.279 253.147c-5.841-22.331-28.292-35.904-50.635-30.761 4.555 10.376 8.318 21.266 11.177 32.625 20.336 80.798-10.311 162.49-71.608 210.986 18.267 5.575 39.279 1.984 54.971-13.15 51.13-49.31 75.17-123.946 56.573-197.836-.157-.623-.316-1.245-.478-1.864z" fill="url(#SVGID_13_)"/><g><path d="m220.275 126.134c-19.03-11.388-42.668-12.133-62.219-1.667-47.502 25.43-82.376 68.453-98.325 118.498-8.291 26.016 2.28 54.332 25.679 68.335 12.123 7.254 20.873 19.038 24.326 32.757 4.28 17.004 21.505 27.312 38.473 23.023 27.503-6.951 44.175-34.928 37.239-62.488l-3.047-12.107c-5.055-20.084 7.095-40.472 27.137-45.537 9.625-2.432 17.891-8.597 22.98-17.137l9.739-16.342c17.995-30.199 8.154-69.3-21.982-87.335z" fill="url(#SVGID_14_)"/><ellipse cx="285.236" cy="148.219" fill="url(#SVGID_15_)" rx="25.765" ry="25.818"/></g></g></g></g></svg>