<svg height="30pt" viewBox="0 -10 511.98685 511" width="30pt" xmlns="http://www.w3.org/2000/svg"><path d="m510.652344 185.902344c-3.351563-10.367188-12.546875-17.730469-23.425782-18.710938l-147.773437-13.417968-58.433594-136.769532c-4.308593-10.023437-14.121093-16.511718-25.023437-16.511718s-20.714844 6.488281-25.023438 16.535156l-58.433594 136.746094-147.796874 13.417968c-10.859376 1.003906-20.03125 8.34375-23.402344 18.710938-3.371094 10.367187-.257813 21.738281 7.957031 28.90625l111.699219 97.960937-32.9375 145.089844c-2.410156 10.667969 1.730468 21.695313 10.582031 28.09375 4.757813 3.4375 10.324219 5.1875 15.9375 5.1875 4.839844 0 9.640625-1.304687 13.949219-3.882813l127.46875-76.183593 100.421875 30.183593c9.324219 0.0 1.078125 0.097657 10.910156-1.304687 10.855469-40.417969 0.992187-0.449219 10.582031-0.09375l-0.9375-145.089844 111.699219" fill="#ffc107"/></svg>
